<svg xmlns="http://www.w3.org/2000/svg" xmlns:xlink="http://www.w3.org/1999/xlink" width="500" zoomAndPan="magnify" viewBox="0 0 375 374.999991" height="500" preserveAspectRatio="xMidYMid meet" version="1.2"><defs><clipPath id="9643796ea7"><rect x="0" width="108" y="0" height="44"/></clipPath><clipPath id="fc8dd2e23f"><path d="M 124.5625 98.113281 L 250.558594 98.113281 L 250.558594 221.058594 L 124.5625 221.058594 Z M 124.5625 98.113281 "/></clipPath></defs><g id="df527ac81b"><g transform="matrix(1,0,0,1,134,237)"><g clip-path="url(#9643796ea7)"><g style="fill:#d9d9d9;fill-opacity:1;"><g transform="translate(0.588379, 32.357235)"><path style="stroke:none" d="M 2.453125 0 L 2.453125 -20.4375 L 10.453125 -20.4375 C 12.109375 -20.4375 13.539062 -20.132812 14.75 -19.53125 C 15.957031 -18.925781 16.894531 -18.066406 17.5625 -16.953125 C 18.238281 -15.847656 18.578125 -14.546875 18.578125 -13.046875 C 18.578125 -11.566406 18.238281 -10.269531 17.5625 -9.15625 C 16.894531 -8.050781 15.957031 -7.195312 14.75 -6.59375 C 13.539062 -5.988281 12.109375 -5.6875 10.453125 -5.6875 L 7.09375 -5.6875 L 7.09375 0 Z M 7.0625 -9.703125 L 10.078125 -9.703125 C 11.285156 -9.703125 12.210938 -9.988281 12.859375 -10.5625 C 13.515625 -11.132812 13.84375 -11.957031 13.84375 -13.03125 C 13.84375 -14.09375 13.515625 -14.914062 12.859375 -15.5 C 12.210938 -16.09375 11.285156 -16.390625 10.078125 -16.390625 L 7.0625 -16.390625 Z M 7.0625 -9.703125 "/></g></g><g style="fill:#d9d9d9;fill-opacity:1;"><g transform="translate(20.596204, 32.357235)"><path style="stroke:none" d="M 0.265625 0 L 8.375 -20.4375 L 12.9375 -20.4375 L 21.0625 0 L 16.09375 0 L 14.71875 -3.53125 L 6.59375 -3.53125 L 5.234375 0 Z M 7.796875 -7.1875 L 13.546875 -7.1875 L 10.65625 -14.65625 Z M 7.796875 -7.1875 "/></g></g><g style="fill:#d9d9d9;fill-opacity:1;"><g transform="translate(42.502577, 32.357235)"><path style="stroke:none" d="M 2.453125 0 L 2.453125 -20.4375 L 6.390625 -20.4375 L 15.421875 -8 L 15.421875 -20.4375 L 20.03125 -20.4375 L 20.03125 0 L 16.09375 0 L 7.0625 -12.53125 L 7.0625 0 Z M 2.453125 0 "/></g></g><g style="fill:#d9d9d9;fill-opacity:1;"><g transform="translate(65.577286, 32.357235)"><path style="stroke:none" d="M 2.453125 0 L 2.453125 -20.4375 L 10.546875 -20.4375 C 12.703125 -20.4375 14.585938 -20.007812 16.203125 -19.15625 C 17.816406 -18.300781 19.070312 -17.101562 19.96875 -15.5625 C 20.863281 -14.03125 21.3125 -12.25 21.3125 -10.21875 C 21.3125 -8.175781 20.863281 -6.390625 19.96875 -4.859375 C 19.070312 -3.328125 17.816406 -2.132812 16.203125 -1.28125 C 14.585938 -0.425781 12.703125 0 10.546875 0 Z M 7.09375 -4.265625 L 10.453125 -4.265625 C 11.660156 -4.265625 12.722656 -4.507812 13.640625 -5 C 14.554688 -5.5 15.269531 -6.195312 15.78125 -7.09375 C 16.300781 -7.988281 16.5625 -9.03125 16.5625 -10.21875 C 16.5625 -11.425781 16.300781 -12.472656 15.78125 -13.359375 C 15.269531 -14.242188 14.550781 -14.929688 13.625 -15.421875 C 12.695312 -15.921875 11.617188 -16.171875 10.390625 -16.171875 L 7.09375 -16.171875 Z M 7.09375 -4.265625 "/></g></g><g style="fill:#d9d9d9;fill-opacity:1;"><g transform="translate(88.710404, 32.357235)"><path style="stroke:none" d="M 2.453125 0 L 2.453125 -20.4375 L 15.890625 -20.4375 L 15.890625 -16.53125 L 7.0625 -16.53125 L 7.0625 -12.296875 L 15.09375 -12.296875 L 15.09375 -8.40625 L 7.0625 -8.40625 L 7.0625 -3.9375 L 16.203125 -3.9375 L 16.203125 0 Z M 2.453125 0 "/></g></g></g></g><g clip-rule="nonzero" clip-path="url(#fc8dd2e23f)"><path style=" stroke:none;fill-rule:evenodd;fill:#155dfc;fill-opacity:1;" d="M 196.296875 193.777344 L 176.644531 193.777344 L 176.644531 206.28125 L 196.296875 206.28125 C 211.152344 206.28125 224.675781 200.199219 234.492188 190.390625 L 234.515625 190.367188 C 244.324219 180.558594 250.410156 167.027344 250.410156 152.171875 C 250.410156 137.292969 244.320312 123.757812 234.515625 113.953125 L 234.492188 113.953125 C 224.6875 104.152344 211.164062 98.058594 196.296875 98.058594 L 163.160156 98.058594 L 163.160156 110.5625 L 196.296875 110.5625 C 207.738281 110.5625 218.152344 115.25 225.691406 122.777344 L 225.679688 122.789062 C 233.21875 130.328125 237.90625 140.734375 237.90625 152.167969 C 237.90625 163.621094 233.230469 174.023438 225.703125 181.550781 L 225.679688 181.574219 C 218.152344 189.101562 207.75 193.777344 196.296875 193.777344 M 137.089844 209.320312 L 137.089844 136.558594 L 196.296875 136.558594 C 200.585938 136.558594 204.492188 138.320312 207.320312 141.144531 L 207.328125 141.136719 C 210.152344 143.96875 211.910156 147.875 211.910156 152.167969 C 211.910156 156.453125 210.148438 160.351562 207.316406 163.183594 L 207.324219 163.195312 C 204.496094 166.019531 200.585938 167.777344 196.296875 167.777344 L 163.148438 167.777344 L 163.148438 150.054688 L 150.644531 150.054688 L 150.644531 221.28125 L 163.148438 221.28125 L 163.148438 180.28125 L 196.296875 180.28125 C 204.007812 180.28125 211.03125 177.113281 216.128906 172.023438 L 216.152344 172.023438 C 221.246094 166.9375 224.410156 159.898438 224.410156 152.171875 C 224.410156 144.457031 221.246094 137.429688 216.15625 132.335938 L 216.15625 132.3125 C 211.066406 127.21875 204.035156 124.054688 196.296875 124.054688 L 124.585938 124.054688 L 124.585938 209.324219 L 137.089844 209.324219 Z M 137.089844 209.320312 "/></g></g></svg>